<?xml version="1.0" encoding="utf-8"?>
<!-- Generator: Adobe Illustrator 24.1.3, SVG Export Plug-In . SVG Version: 6.00 Build 0)  -->
<svg version="1.1" id="Laag_1" xmlns="http://www.w3.org/2000/svg" xmlns:xlink="http://www.w3.org/1999/xlink" x="0px" y="0px"
	 viewBox="0 0 595.3 841.9" style="enable-background:new 0 0 595.3 841.9;" xml:space="preserve">
<style type="text/css">
	.st0{fill:none;stroke:#000000;stroke-width:25;stroke-miterlimit:10;}
	.st1{fill:#9D9D9C;stroke:#9D9D9C;stroke-width:40;stroke-miterlimit:10;}
	.st2{fill:none;stroke:#000000;stroke-width:40;stroke-miterlimit:10;}
</style>
<path class="st0" d="M189.9,342.8"/>
<line class="st0" x1="39.7" y1="178.1" x2="555.6" y2="178.1"/>
<line class="st0" x1="39.7" y1="330.5" x2="555.6" y2="330.5"/>
<line class="st0" x1="39.7" y1="482.9" x2="555.6" y2="482.9"/>
<path class="st1" d="M-739.6,36.9l-212.1-212.1c-157.9-157.8,54.3-369.9,212.1-212.1c39.4-39.4,82.2-55.8,121.8-55.7
	c119,0.3,208.8,149.3,90.4,267.8L-739.6,36.9z"/>
<path class="st2" d="M-388,799.2h-430.3c-39.9,0-72.2-32.3-72.2-72.2V489.5c0-39.9,32.3-72.2,72.2-72.2H-388
	c39.9,0,72.2,32.3,72.2,72.2v237.6C-315.8,766.9-348.1,799.2-388,799.2z"/>
<path class="st0" d="M-739.6,460.3c0-286.4,272.8-286.4,272.8,0"/>
</svg>
